<svg width="172" height="70" viewBox="0 0 172 70" fill="none" xmlns="http://www.w3.org/2000/svg">
<path d="M153.303 10.5736C152.912 11.2476 152.071 11.4953 151.429 11.1269L146.629 8.37441C145.987 8.00596 145.783 7.15957 146.175 6.4856C146.567 5.81156 147.407 5.56274 148.049 5.93118L152.849 8.68367C153.491 9.05212 153.695 9.89963 153.303 10.5736Z" fill="white"/>
<path d="M4.51285 37.7627H10.78V12.5244V6.90527H4.51285H0V12.5244H4.51285V37.7627ZM27.9413 17.0048V28.3369C27.9413 31.2905 26.342 32.6203 24.0436 32.6203C22.0414 32.6203 20.4184 31.4083 20.4184 28.8429V17.0048H14.1394V29.749C14.1394 35.3503 17.7409 38.3393 21.9585 38.3393C24.719 38.3393 26.8039 37.3509 27.9413 35.8092V37.7626H34.2084V17.0047H27.9413V17.0048ZM53.207 17.0048V19.1229C51.821 17.4166 49.8188 16.4282 47.1058 16.4282C41.1704 16.4282 36.8226 21.241 36.8226 26.9718C36.8226 32.7027 41.1705 37.5155 47.1058 37.5155C49.8188 37.5155 51.8209 36.5153 53.207 34.8208V36.7271C53.207 39.6689 51.4063 41.1635 48.4802 41.1635C45.7198 41.1635 44.5114 40.0103 43.7176 38.5511L38.3628 41.6224C40.2938 45.0231 43.9309 46.6471 48.267 46.6471C53.835 46.6471 59.3084 43.6934 59.3084 36.727V17.0046H53.2071L53.207 17.0048ZM48.1484 31.7848C45.1748 31.7848 43.0897 29.8314 43.0897 26.9719C43.0897 24.1006 45.1748 22.159 48.1484 22.159C51.1101 22.159 53.207 24.1006 53.207 26.9719C53.207 29.8314 51.1101 31.7848 48.1484 31.7848ZM68.7613 29.8785H83.5938C83.7596 29.09 83.8426 28.2546 83.8426 27.3837C83.8426 21.1116 79.3288 16.4282 73.2277 16.4282C66.6289 16.4282 62.1151 21.1939 62.1151 27.3837C62.1151 33.5735 66.5459 38.3393 73.6897 38.3393C77.6585 38.3393 80.7506 36.8919 82.8001 34.0676L77.7888 31.2082C76.9477 32.1143 75.4905 32.785 73.7727 32.785C71.4743 32.785 69.5551 32.0319 68.7614 29.8785H68.7613ZM68.631 25.2303C69.2234 23.1121 70.8108 21.9472 73.1921 21.9472C75.064 21.9472 76.9477 22.818 77.623 25.2303H68.631H68.631ZM98.6238 16.4282C95.8633 16.4282 93.7665 17.4167 92.641 18.9583V17.0049H86.3739V37.7628H92.641V26.4307C92.641 23.477 94.2285 22.159 96.5268 22.159C98.5409 22.159 100.164 23.3593 100.164 25.9364V37.7628H106.431V25.0186C106.431 19.4172 102.841 16.4283 98.6238 16.4283V16.4282ZM113.02 15.1809C115.058 15.1809 116.775 13.4746 116.775 11.4388C116.775 9.41476 115.058 7.70851 113.02 7.70851C110.97 7.70851 109.253 9.41476 109.253 11.4388C109.253 13.4746 110.97 15.1809 113.02 15.1809ZM109.88 37.7628H116.148V17.0049H109.88V37.7628ZM133.387 17.0049V28.337C133.387 31.2906 131.788 32.6204 129.489 32.6204C127.487 32.6204 125.864 31.4084 125.864 28.843V17.0049H119.585V29.7491C119.585 35.3504 123.187 38.3394 127.404 38.3394C130.165 38.3394 132.25 37.351 133.387 35.8093V37.7627H139.654V17.0048H133.387V17.0049ZM149.163 23.0652C149.163 22.3238 149.827 21.9002 150.917 21.9002C152.303 21.9002 153.132 22.6534 153.724 23.7359L159.067 20.8647C157.314 17.9228 154.305 16.4283 150.917 16.4283C146.569 16.4283 142.73 18.7112 142.73 23.2299C142.73 30.4198 153.013 29.2079 153.013 31.4908C153.013 32.3263 152.255 32.7852 150.751 32.7852C148.914 32.7852 147.742 31.9143 147.196 30.3375L141.771 33.4088C143.394 36.7625 146.569 38.3394 150.751 38.3394C155.264 38.3394 159.446 36.3153 159.446 31.5377C159.446 23.8536 149.163 25.4304 149.163 23.0652H149.163ZM165.062 38.3394C167.23 38.3394 169.031 36.5625 169.031 34.3973C169.031 32.2438 167.23 30.4552 165.062 30.4552C162.882 30.4552 161.093 32.2438 161.093 34.3973C161.093 36.5625 162.882 38.3394 165.062 38.3394Z" fill="white"/>
<path d="M163.051 16.1028C163.447 15.4317 164.29 15.19 164.929 15.5631L169.709 18.3499C170.349 18.7229 170.546 19.5708 170.149 20.2419C169.753 20.9131 168.911 21.1559 168.271 20.7829L163.492 17.996C162.852 17.623 162.654 16.774 163.051 16.1028Z" fill="white"/>
<path d="M156.69 7.94846C155.933 8.14989 155.162 7.73469 154.97 7.0229L153.536 1.70556C153.344 0.993844 153.803 0.252339 154.559 0.0509142C155.316 -0.150511 156.087 0.263728 156.279 0.975446L157.714 6.29278C157.906 7.0045 157.446 7.74704 156.69 7.94846Z" fill="white"/>
<path d="M160.953 8.4701C160.274 8.08095 160.025 7.24617 160.396 6.60805L163.167 1.84059C163.538 1.20247 164.39 1.00025 165.069 1.3894C165.747 1.77855 165.998 2.61308 165.627 3.2512L162.856 8.01858C162.485 8.65671 161.632 8.85917 160.953 8.4701Z" fill="white"/>
<path d="M163.596 11.8333C163.393 11.0816 163.811 10.3161 164.528 10.1254L169.881 8.70064C170.598 8.50989 171.344 8.96555 171.547 9.71717C171.75 10.4689 171.333 11.235 170.616 11.4257L165.263 12.8504C164.546 13.0411 163.799 12.585 163.596 11.8333Z" fill="white"/>
<path d="M36.0081 66.117C35.4621 66.117 34.9724 66.026 34.5391 65.844C34.1057 65.6533 33.7634 65.3933 33.5121 65.064C33.2607 64.726 33.1221 64.3403 33.0961 63.907H34.3181C34.3527 64.2623 34.5174 64.5527 34.8121 64.778C35.1154 65.0033 35.5097 65.116 35.9951 65.116C36.4457 65.116 36.8011 65.0163 37.0611 64.817C37.3211 64.6177 37.4511 64.3663 37.4511 64.063C37.4511 63.751 37.3124 63.5213 37.0351 63.374C36.7577 63.218 36.3287 63.0663 35.7481 62.919C35.2194 62.7803 34.7861 62.6417 34.4481 62.503C34.1187 62.3557 33.8327 62.1433 33.5901 61.866C33.3561 61.58 33.2391 61.2073 33.2391 60.748C33.2391 60.384 33.3474 60.0503 33.5641 59.747C33.7807 59.4437 34.0884 59.2053 34.4871 59.032C34.8857 58.85 35.3407 58.759 35.8521 58.759C36.6407 58.759 37.2777 58.9583 37.7631 59.357C38.2484 59.7557 38.5084 60.3017 38.5431 60.995H37.3601C37.3341 60.6223 37.1824 60.3233 36.9051 60.098C36.6364 59.8727 36.2724 59.76 35.8131 59.76C35.3884 59.76 35.0504 59.851 34.7991 60.033C34.5477 60.215 34.4221 60.4533 34.4221 60.748C34.4221 60.982 34.4957 61.177 34.6431 61.333C34.7991 61.4803 34.9897 61.6017 35.2151 61.697C35.4491 61.7837 35.7697 61.8833 36.1771 61.996C36.6884 62.1347 37.1044 62.2733 37.4251 62.412C37.7457 62.542 38.0187 62.7413 38.2441 63.01C38.4781 63.2787 38.5994 63.6297 38.6081 64.063C38.6081 64.453 38.4997 64.804 38.2831 65.116C38.0664 65.428 37.7587 65.675 37.3601 65.857C36.9701 66.0303 36.5194 66.117 36.0081 66.117ZM41.0191 57.719C40.7937 57.719 40.6031 57.641 40.4471 57.485C40.2911 57.329 40.2131 57.1383 40.2131 56.913C40.2131 56.6877 40.2911 56.497 40.4471 56.341C40.6031 56.185 40.7937 56.107 41.0191 56.107C41.2357 56.107 41.4177 56.185 41.5651 56.341C41.7211 56.497 41.7991 56.6877 41.7991 56.913C41.7991 57.1383 41.7211 57.329 41.5651 57.485C41.4177 57.641 41.2357 57.719 41.0191 57.719ZM41.5911 58.876V66H40.4081V58.876H41.5911ZM52.3043 58.746C52.859 58.746 53.353 58.863 53.7863 59.097C54.2196 59.3223 54.562 59.6647 54.8133 60.124C55.0646 60.5833 55.1903 61.1423 55.1903 61.801V66H54.0203V61.97C54.0203 61.2593 53.8426 60.7177 53.4873 60.345C53.1406 59.9637 52.6683 59.773 52.0703 59.773C51.455 59.773 50.9653 59.9723 50.6013 60.371C50.2373 60.761 50.0553 61.3287 50.0553 62.074V66H48.8853V61.97C48.8853 61.2593 48.7076 60.7177 48.3523 60.345C48.0056 59.9637 47.5333 59.773 46.9353 59.773C46.32 59.773 45.8303 59.9723 45.4663 60.371C45.1023 60.761 44.9203 61.3287 44.9203 62.074V66H43.7373V58.876H44.9203V59.903C45.1543 59.5303 45.4663 59.2443 45.8563 59.045C46.255 58.8457 46.6926 58.746 47.1693 58.746C47.7673 58.746 48.296 58.8803 48.7553 59.149C49.2146 59.4177 49.557 59.812 49.7823 60.332C49.9816 59.8293 50.311 59.4393 50.7703 59.162C51.2296 58.8847 51.741 58.746 52.3043 58.746ZM58.4438 60.189C58.6778 59.7817 59.0245 59.4437 59.4838 59.175C59.9518 58.8977 60.4935 58.759 61.1088 58.759C61.7415 58.759 62.3135 58.9107 62.8248 59.214C63.3448 59.5173 63.7522 59.9463 64.0468 60.501C64.3415 61.047 64.4888 61.684 64.4888 62.412C64.4888 63.1313 64.3415 63.7727 64.0468 64.336C63.7522 64.8993 63.3448 65.337 62.8248 65.649C62.3135 65.961 61.7415 66.117 61.1088 66.117C60.5022 66.117 59.9648 65.9827 59.4968 65.714C59.0375 65.4367 58.6865 65.0943 58.4438 64.687V69.38H57.2608V58.876H58.4438V60.189ZM63.2798 62.412C63.2798 61.8747 63.1715 61.4067 62.9548 61.008C62.7382 60.6093 62.4435 60.306 62.0708 60.098C61.7068 59.89 61.3038 59.786 60.8618 59.786C60.4285 59.786 60.0255 59.8943 59.6528 60.111C59.2888 60.319 58.9942 60.6267 58.7688 61.034C58.5522 61.4327 58.4438 61.8963 58.4438 62.425C58.4438 62.9623 58.5522 63.4347 58.7688 63.842C58.9942 64.2407 59.2888 64.5483 59.6528 64.765C60.0255 64.973 60.4285 65.077 60.8618 65.077C61.3038 65.077 61.7068 64.973 62.0708 64.765C62.4435 64.5483 62.7382 64.2407 62.9548 63.842C63.1715 63.4347 63.2798 62.958 63.2798 62.412ZM67.359 56.38V66H66.176V56.38H67.359ZM75.6412 58.876L71.3512 69.354H70.1292L71.5332 65.922L68.6602 58.876H69.9732L72.2092 64.648L74.4192 58.876H75.6412ZM80.1142 62.412C80.1142 61.684 80.2616 61.047 80.5562 60.501C80.8509 59.9463 81.2539 59.5173 81.7652 59.214C82.2852 58.9107 82.8616 58.759 83.4942 58.759C84.1182 58.759 84.6599 58.8933 85.1192 59.162C85.5786 59.4307 85.9209 59.7687 86.1462 60.176V58.876H87.3422V66H86.1462V64.674C85.9122 65.09 85.5612 65.4367 85.0932 65.714C84.6339 65.9827 84.0966 66.117 83.4812 66.117C82.8486 66.117 82.2766 65.961 81.7652 65.649C81.2539 65.337 80.8509 64.8993 80.5562 64.336C80.2616 63.7727 80.1142 63.1313 80.1142 62.412ZM86.1462 62.425C86.1462 61.8877 86.0379 61.4197 85.8212 61.021C85.6046 60.6223 85.3099 60.319 84.9372 60.111C84.5732 59.8943 84.1702 59.786 83.7282 59.786C83.2862 59.786 82.8832 59.89 82.5192 60.098C82.1552 60.306 81.8649 60.6093 81.6482 61.008C81.4316 61.4067 81.3232 61.8747 81.3232 62.412C81.3232 62.958 81.4316 63.4347 81.6482 63.842C81.8649 64.2407 82.1552 64.5483 82.5192 64.765C82.8832 64.973 83.2862 65.077 83.7282 65.077C84.1702 65.077 84.5732 64.973 84.9372 64.765C85.3099 64.5483 85.6046 64.2407 85.8212 63.842C86.0379 63.4347 86.1462 62.9623 86.1462 62.425ZM98.0384 58.746C98.5931 58.746 99.0871 58.863 99.5204 59.097C99.9537 59.3223 100.296 59.6647 100.547 60.124C100.799 60.5833 100.924 61.1423 100.924 61.801V66H99.7544V61.97C99.7544 61.2593 99.5767 60.7177 99.2214 60.345C98.8747 59.9637 98.4024 59.773 97.8044 59.773C97.1891 59.773 96.6994 59.9723 96.3354 60.371C95.9714 60.761 95.7894 61.3287 95.7894 62.074V66H94.6194V61.97C94.6194 61.2593 94.4417 60.7177 94.0864 60.345C93.7397 59.9637 93.2674 59.773 92.6694 59.773C92.0541 59.773 91.5644 59.9723 91.2004 60.371C90.8364 60.761 90.6544 61.3287 90.6544 62.074V66H89.4714V58.876H90.6544V59.903C90.8884 59.5303 91.2004 59.2443 91.5904 59.045C91.9891 58.8457 92.4267 58.746 92.9034 58.746C93.5014 58.746 94.0301 58.8803 94.4894 59.149C94.9487 59.4177 95.2911 59.812 95.5164 60.332C95.7157 59.8293 96.0451 59.4393 96.5044 59.162C96.9637 58.8847 97.4751 58.746 98.0384 58.746ZM102.553 62.412C102.553 61.684 102.7 61.047 102.995 60.501C103.29 59.9463 103.693 59.5173 104.204 59.214C104.724 58.9107 105.3 58.759 105.933 58.759C106.557 58.759 107.099 58.8933 107.558 59.162C108.017 59.4307 108.36 59.7687 108.585 60.176V58.876H109.781V66H108.585V64.674C108.351 65.09 108 65.4367 107.532 65.714C107.073 65.9827 106.535 66.117 105.92 66.117C105.287 66.117 104.715 65.961 104.204 65.649C103.693 65.337 103.29 64.8993 102.995 64.336C102.7 63.7727 102.553 63.1313 102.553 62.412ZM108.585 62.425C108.585 61.8877 108.477 61.4197 108.26 61.021C108.043 60.6223 107.749 60.319 107.376 60.111C107.012 59.8943 106.609 59.786 106.167 59.786C105.725 59.786 105.322 59.89 104.958 60.098C104.594 60.306 104.304 60.6093 104.087 61.008C103.87 61.4067 103.762 61.8747 103.762 62.412C103.762 62.958 103.87 63.4347 104.087 63.842C104.304 64.2407 104.594 64.5483 104.958 64.765C105.322 64.973 105.725 65.077 106.167 65.077C106.609 65.077 107.012 64.973 107.376 64.765C107.749 64.5483 108.043 64.2407 108.26 63.842C108.477 63.4347 108.585 62.9623 108.585 62.425ZM112.794 65.025H116.291V66H111.442V65.025L114.9 59.838H111.468V58.876H116.265V59.838L112.794 65.025ZM118.567 57.719C118.342 57.719 118.151 57.641 117.995 57.485C117.839 57.329 117.761 57.1383 117.761 56.913C117.761 56.6877 117.839 56.497 117.995 56.341C118.151 56.185 118.342 56.107 118.567 56.107C118.784 56.107 118.966 56.185 119.113 56.341C119.269 56.497 119.347 56.6877 119.347 56.913C119.347 57.1383 119.269 57.329 119.113 57.485C118.966 57.641 118.784 57.719 118.567 57.719ZM119.139 58.876V66H117.956V58.876H119.139ZM124.756 58.746C125.623 58.746 126.325 59.0103 126.862 59.539C127.4 60.059 127.668 60.813 127.668 61.801V66H126.498V61.97C126.498 61.2593 126.321 60.7177 125.965 60.345C125.61 59.9637 125.125 59.773 124.509 59.773C123.885 59.773 123.387 59.968 123.014 60.358C122.65 60.748 122.468 61.3157 122.468 62.061V66H121.285V58.876H122.468V59.89C122.702 59.526 123.019 59.2443 123.417 59.045C123.825 58.8457 124.271 58.746 124.756 58.746ZM132.669 58.759C133.284 58.759 133.821 58.8933 134.281 59.162C134.749 59.4307 135.095 59.7687 135.321 60.176V58.876H136.517V66.156C136.517 66.806 136.378 67.3823 136.101 67.885C135.823 68.3963 135.425 68.795 134.905 69.081C134.393 69.367 133.795 69.51 133.111 69.51C132.175 69.51 131.395 69.289 130.771 68.847C130.147 68.405 129.778 67.8027 129.666 67.04H130.836C130.966 67.4733 131.234 67.82 131.642 68.08C132.049 68.3487 132.539 68.483 133.111 68.483C133.761 68.483 134.289 68.2793 134.697 67.872C135.113 67.4647 135.321 66.8927 135.321 66.156V64.661C135.087 65.077 134.74 65.4237 134.281 65.701C133.821 65.9783 133.284 66.117 132.669 66.117C132.036 66.117 131.46 65.961 130.94 65.649C130.428 65.337 130.025 64.8993 129.731 64.336C129.436 63.7727 129.289 63.1313 129.289 62.412C129.289 61.684 129.436 61.047 129.731 60.501C130.025 59.9463 130.428 59.5173 130.94 59.214C131.46 58.9107 132.036 58.759 132.669 58.759ZM135.321 62.425C135.321 61.8877 135.212 61.4197 134.996 61.021C134.779 60.6223 134.484 60.319 134.112 60.111C133.748 59.8943 133.345 59.786 132.903 59.786C132.461 59.786 132.058 59.89 131.694 60.098C131.33 60.306 131.039 60.6093 130.823 61.008C130.606 61.4067 130.498 61.8747 130.498 62.412C130.498 62.958 130.606 63.4347 130.823 63.842C131.039 64.2407 131.33 64.5483 131.694 64.765C132.058 64.973 132.461 65.077 132.903 65.077C133.345 65.077 133.748 64.973 134.112 64.765C134.484 64.5483 134.779 64.2407 134.996 63.842C135.212 63.4347 135.321 62.9623 135.321 62.425Z" fill="white"/>
</svg>
