<svg width="37" height="37" viewBox="0 0 37 37" fill="none" xmlns="http://www.w3.org/2000/svg">
<circle cx="18.5" cy="18.5" r="18.5" fill="#12D03C"/>
<path d="M15.5567 23.9303L11.8286 19.515C11.6277 19.2771 11.3553 19.1435 11.0712 19.1435C10.7871 19.1435 10.5146 19.2771 10.3137 19.515C10.1129 19.7529 10 20.0756 10 20.4121C10 20.5787 10.0277 20.7436 10.0815 20.8976C10.1354 21.0515 10.2143 21.1913 10.3137 21.3091L14.8046 26.6278C15.2236 27.1241 15.9005 27.1241 16.3195 26.6278L27.6863 13.1657C27.8871 12.9278 28 12.6051 28 12.2686C28 11.9322 27.8871 11.6095 27.6863 11.3716C27.4854 11.1337 27.2129 11 26.9288 11C26.6447 11 26.3723 11.1337 26.1714 11.3716L15.5567 23.9303Z" fill="white"/>
</svg>
