<svg width="176" height="56" viewBox="0 0 176 56" fill="none" xmlns="http://www.w3.org/2000/svg">
<g clip-path="url(#clip0_55_1506)">
<path d="M143.587 18.2398C143.239 18.839 142.492 19.0592 141.921 18.7316L137.655 16.285C137.084 15.9575 136.903 15.2051 137.251 14.606C137.599 14.0069 138.346 13.7857 138.917 14.1132L143.183 16.5599C143.754 16.8874 143.936 17.6407 143.587 18.2398Z" fill="#1E1E1E"/>
<path d="M11.3288 42.4076H16.8996V19.9735V14.9787H11.3288H7.31738V19.9735H11.3288V42.4076ZM32.1541 23.9561V34.0291C32.1541 36.6545 30.7325 37.8365 28.6895 37.8365C26.9098 37.8365 25.4671 36.7592 25.4671 34.4789V23.9561H19.8858V35.2842C19.8858 40.2632 23.0871 42.9201 26.8361 42.9201C29.2898 42.9201 31.1431 42.0415 32.1541 40.6712V42.4075H37.7249V23.956H32.1541V23.9561ZM54.6125 23.9561V25.8388C53.3805 24.3222 51.6008 23.4435 49.1892 23.4435C43.9133 23.4435 40.0486 27.7216 40.0486 32.8156C40.0486 37.9097 43.9134 42.1878 49.1892 42.1878C51.6008 42.1878 53.3804 41.2988 54.6125 39.7925V41.487C54.6125 44.1019 53.0119 45.4304 50.4109 45.4304C47.9572 45.4304 46.8831 44.4054 46.1775 43.1083L41.4176 45.8384C43.1341 48.8612 46.3671 50.3048 50.2214 50.3048C55.1707 50.3048 60.036 47.6793 60.036 41.4869V23.9559H54.6126L54.6125 23.9561ZM50.1159 37.0939C47.4728 37.0939 45.6194 35.3575 45.6194 32.8157C45.6194 30.2635 47.4728 28.5376 50.1159 28.5376C52.7486 28.5376 54.6125 30.2635 54.6125 32.8157C54.6125 35.3575 52.7486 37.0939 50.1159 37.0939ZM68.4386 35.3994H81.623C81.7704 34.6985 81.8442 33.9559 81.8442 33.1818C81.8442 27.6066 77.8319 23.4435 72.4087 23.4435C66.5431 23.4435 62.5308 27.6798 62.5308 33.1818C62.5308 38.6838 66.4693 42.9201 72.8193 42.9201C76.3472 42.9201 79.0957 41.6335 80.9174 39.123L76.463 36.5813C75.7153 37.3868 74.42 37.9829 72.8931 37.9829C70.8501 37.9829 69.1441 37.3135 68.4386 35.3994H68.4386ZM68.3227 31.2677C68.8493 29.3848 70.2604 28.3493 72.3771 28.3493C74.0409 28.3493 75.7153 29.1234 76.3156 31.2677H68.3227H68.3227ZM94.983 23.4436C92.5293 23.4436 90.6654 24.3222 89.6649 25.6925V23.9562H84.0942V42.4076H89.6649V32.3346C89.6649 29.7092 91.076 28.5376 93.119 28.5376C94.9093 28.5376 96.3519 29.6045 96.3519 31.8953V42.4076H101.923V31.0794C101.923 26.1004 98.7319 23.4437 94.983 23.4437V23.4436ZM107.78 22.3348C109.591 22.3348 111.118 20.8181 111.118 19.0085C111.118 17.2094 109.591 15.6927 107.78 15.6927C105.958 15.6927 104.431 17.2094 104.431 19.0085C104.431 20.8181 105.958 22.3348 107.78 22.3348ZM104.989 42.4076H110.56V23.9562H104.989V42.4076ZM125.884 23.9562V34.0292C125.884 36.6546 124.462 37.8366 122.419 37.8366C120.639 37.8366 119.197 36.7593 119.197 34.4789V23.9562H113.615V35.2843C113.615 40.2633 116.817 42.9201 120.565 42.9201C123.019 42.9201 124.873 42.0416 125.884 40.6712V42.4076H131.454V23.9561H125.884V23.9562ZM139.907 29.3431C139.907 28.6841 140.497 28.3075 141.465 28.3075C142.698 28.3075 143.435 28.977 143.961 29.9393L148.711 27.3871C147.152 24.7721 144.477 23.4437 141.465 23.4437C137.601 23.4437 134.189 25.4729 134.189 29.4895C134.189 35.8806 143.329 34.8032 143.329 36.8325C143.329 37.5752 142.655 37.9831 141.318 37.9831C139.686 37.9831 138.643 37.209 138.159 35.8074L133.336 38.5374C134.778 41.5185 137.601 42.9201 141.318 42.9201C145.33 42.9201 149.047 41.121 149.047 36.8743C149.047 30.0439 139.907 31.4455 139.907 29.3431H139.907ZM154.039 42.9202C155.966 42.9202 157.567 41.3407 157.567 39.4161C157.567 37.5019 155.966 35.912 154.039 35.912C152.101 35.912 150.511 37.5019 150.511 39.4161C150.511 41.3407 152.101 42.9202 154.039 42.9202Z" fill="#1E1E1E"/>
<path d="M152.251 23.1549C152.604 22.5583 153.352 22.3435 153.921 22.6751L158.169 25.1522C158.738 25.4838 158.914 26.2375 158.561 26.8341C158.208 27.4307 157.46 27.6465 156.891 27.3149L152.643 24.8377C152.074 24.5061 151.899 23.7515 152.251 23.1549Z" fill="#1E1E1E"/>
<path d="M146.597 15.9062C145.924 16.0852 145.239 15.7161 145.069 15.0834L143.794 10.3569C143.623 9.72427 144.031 9.06515 144.703 8.88611C145.376 8.70706 146.062 9.07528 146.232 9.70791L147.507 14.4344C147.678 15.0671 147.27 15.7271 146.597 15.9062Z" fill="#1E1E1E"/>
<path d="M150.387 16.3699C149.784 16.024 149.562 15.282 149.892 14.7148L152.355 10.477C152.684 9.90983 153.442 9.73007 154.045 10.076C154.648 10.4219 154.871 11.1637 154.541 11.7309L152.078 15.9686C151.748 16.5358 150.99 16.7158 150.387 16.3699Z" fill="#1E1E1E"/>
<path d="M152.736 19.3595C152.556 18.6914 152.928 18.0109 153.565 17.8415L158.323 16.575C158.96 16.4054 159.624 16.8104 159.804 17.4785C159.984 18.1467 159.613 18.8277 158.977 18.9972L154.218 20.2637C153.581 20.4332 152.917 20.0277 152.736 19.3595Z" fill="#1E1E1E"/>
</g>
<defs>
<clipPath id="clip0_55_1506">
<rect width="176" height="56" fill="white"/>
</clipPath>
</defs>
</svg>
