<svg width="60" height="60" viewBox="0 0 60 60" fill="none" xmlns="http://www.w3.org/2000/svg">
<circle cx="30" cy="30" r="30" fill="#9E9E9E"/>
<path d="M37.918 25.058C37.918 26.2153 37.639 27.3003 37.081 28.313C36.5437 29.3257 35.686 30.142 34.508 30.762C33.3507 31.382 31.8833 31.692 30.106 31.692H26.479V40H22.139V18.362H30.106C31.78 18.362 33.206 18.6513 34.384 19.23C35.562 19.8087 36.4403 20.6043 37.019 21.617C37.6183 22.6297 37.918 23.7767 37.918 25.058ZM29.92 28.189C31.1187 28.189 32.0073 27.9203 32.586 27.383C33.1647 26.825 33.454 26.05 33.454 25.058C33.454 22.95 32.276 21.896 29.92 21.896H26.479V28.189H29.92Z" fill="white"/>
</svg>
