<svg width="60" height="60" viewBox="0 0 60 60" fill="none" xmlns="http://www.w3.org/2000/svg">
<circle cx="30" cy="30" r="30" fill="#12D03C"/>
<path d="M33.299 40L28.525 31.568H26.479V40H22.139V18.362H30.261C31.935 18.362 33.361 18.6617 34.539 19.261C35.717 19.8397 36.5953 20.6353 37.174 21.648C37.7733 22.64 38.073 23.756 38.073 24.996C38.073 26.422 37.6597 27.7137 36.833 28.871C36.0063 30.0077 34.7767 30.793 33.144 31.227L38.321 40H33.299ZM26.479 28.313H30.106C31.284 28.313 32.1623 28.034 32.741 27.476C33.3197 26.8973 33.609 26.1017 33.609 25.089C33.609 24.097 33.3197 23.3323 32.741 22.795C32.1623 22.237 31.284 21.958 30.106 21.958H26.479V28.313Z" fill="white"/>
</svg>
